<svg width="102" height="20" viewBox="0 0 102 20" fill="none" xmlns="http://www.w3.org/2000/svg">
<path d="M7 17C7 13.1344 10.1344 10 14 10V17H7Z" fill="#64748B"/>
<path d="M0 10C3.86556 10 7 13.1344 7 17H0V10Z" fill="#64748B"/>
<path d="M7 3C7 6.86556 10.1344 10 14 10V3H7Z" fill="#64748B"/>
<path d="M0 10C3.86556 10 7 6.86556 7 3H0V10Z" fill="#64748B"/>
<path d="M23.984 11.584H26.944L25.504 7.392H25.472L23.984 11.584ZM24.224 4.576H26.8L31.072 16H28.464L27.6 13.456H23.328L22.432 16H19.904L24.224 4.576ZM39.1931 8.416C39.1505 8.128 39.0545 7.86667 38.9051 7.632C38.7558 7.38667 38.5691 7.17333 38.3451 6.992C38.1211 6.81067 37.8651 6.672 37.5771 6.576C37.2998 6.46933 37.0065 6.416 36.6971 6.416C36.1318 6.416 35.6518 6.528 35.2571 6.752C34.8625 6.96533 34.5425 7.25867 34.2971 7.632C34.0518 7.99467 33.8705 8.41067 33.7531 8.88C33.6465 9.34933 33.5931 9.83467 33.5931 10.336C33.5931 10.816 33.6465 11.2853 33.7531 11.744C33.8705 12.192 34.0518 12.5973 34.2971 12.96C34.5425 13.3227 34.8625 13.616 35.2571 13.84C35.6518 14.0533 36.1318 14.16 36.6971 14.16C37.4651 14.16 38.0625 13.9253 38.4891 13.456C38.9265 12.9867 39.1931 12.368 39.2891 11.6H41.7211C41.6571 12.3147 41.4918 12.96 41.2251 13.536C40.9585 14.112 40.6065 14.6027 40.1691 15.008C39.7318 15.4133 39.2198 15.7227 38.6331 15.936C38.0465 16.1493 37.4011 16.256 36.6971 16.256C35.8225 16.256 35.0331 16.1067 34.3291 15.808C33.6358 15.4987 33.0491 15.0773 32.5691 14.544C32.0891 14.0107 31.7211 13.3867 31.4651 12.672C31.2091 11.9467 31.0811 11.168 31.0811 10.336C31.0811 9.48267 31.2091 8.69333 31.4651 7.968C31.7211 7.232 32.0891 6.592 32.5691 6.048C33.0491 5.504 33.6358 5.07733 34.3291 4.768C35.0331 4.45867 35.8225 4.304 36.6971 4.304C37.3265 4.304 37.9185 4.39467 38.4731 4.576C39.0385 4.75733 39.5398 5.024 39.9771 5.376C40.4251 5.71733 40.7931 6.144 41.0811 6.656C41.3691 7.168 41.5505 7.75467 41.6251 8.416H39.1931ZM42.9565 4.576H46.4925L49.1645 12.432H49.1965L51.7245 4.576H55.2605V16H52.9085V7.904H52.8765L50.0765 16H48.1405L45.3405 7.984H45.3085V16H42.9565V4.576ZM56.9921 4.576H65.5361V6.688H59.5041V9.136H65.0401V11.088H59.5041V13.888H65.6641V16H56.9921V4.576ZM70.8602 4.576H73.3722V16H70.8602V4.576ZM75.099 4.576H77.595L82.363 12.24H82.395V4.576H84.747V16H82.235L77.483 8.352H77.451V16H75.099V4.576ZM94.0944 8.416C94.0517 8.128 93.9557 7.86667 93.8064 7.632C93.657 7.38667 93.4704 7.17333 93.2464 6.992C93.0224 6.81067 92.7664 6.672 92.4784 6.576C92.201 6.46933 91.9077 6.416 91.5984 6.416C91.033 6.416 90.553 6.528 90.1584 6.752C89.7637 6.96533 89.4437 7.25867 89.1984 7.632C88.953 7.99467 88.7717 8.41067 88.6544 8.88C88.5477 9.34933 88.4944 9.83467 88.4944 10.336C88.4944 10.816 88.5477 11.2853 88.6544 11.744C88.7717 12.192 88.953 12.5973 89.1984 12.96C89.4437 13.3227 89.7637 13.616 90.1584 13.84C90.553 14.0533 91.033 14.16 91.5984 14.16C92.3664 14.16 92.9637 13.9253 93.3904 13.456C93.8277 12.9867 94.0944 12.368 94.1904 11.6H96.6224C96.5584 12.3147 96.393 12.96 96.1264 13.536C95.8597 14.112 95.5077 14.6027 95.0704 15.008C94.633 15.4133 94.121 15.7227 93.5344 15.936C92.9477 16.1493 92.3024 16.256 91.5984 16.256C90.7237 16.256 89.9344 16.1067 89.2304 15.808C88.537 15.4987 87.9504 15.0773 87.4704 14.544C86.9904 14.0107 86.6224 13.3867 86.3664 12.672C86.1104 11.9467 85.9824 11.168 85.9824 10.336C85.9824 9.48267 86.1104 8.69333 86.3664 7.968C86.6224 7.232 86.9904 6.592 87.4704 6.048C87.9504 5.504 88.537 5.07733 89.2304 4.768C89.9344 4.45867 90.7237 4.304 91.5984 4.304C92.2277 4.304 92.8197 4.39467 93.3744 4.576C93.9397 4.75733 94.441 5.024 94.8784 5.376C95.3264 5.71733 95.6944 6.144 95.9824 6.656C96.2704 7.168 96.4517 7.75467 96.5264 8.416H94.0944ZM97.7138 13.536H100.226V16H97.7138V13.536Z" fill="#64748B"/>
</svg>
