<svg width="75" height="17" viewBox="0 0 75 17" fill="none" xmlns="http://www.w3.org/2000/svg">
<path d="M6.3375 6.125C6.3375 6.8625 6.025 7.5125 5.5125 8.0125C4.95 8.575 4.125 8.725 4.125 9.2C4.125 9.85 5.175 9.65 6.175 10.65C6.8375 11.3125 7.25 12.1875 7.25 13.2125C7.25 15.225 5.6375 16.8125 3.6125 16.8125C1.5875 16.8125 0 15.225 0 13.2125C0 12.2 0.4125 11.325 1.075 10.65C2.075 9.65 3.125 9.85 3.125 9.2C3.125 8.725 2.3 8.575 1.7375 8.0125C1.225 7.5 0.9125 6.85 0.9125 6.0875C0.9125 4.6125 2.1125 3.425 3.5875 3.425C3.875 3.425 4.125 3.4625 4.3375 3.4625C4.725 3.4625 4.9125 3.2875 4.9125 3.025C4.9125 2.875 4.8375 2.675 4.8375 2.4625C4.8375 1.9875 5.25 1.5875 5.7375 1.5875C6.2375 1.5875 6.625 2 6.625 2.4875C6.625 3.0125 6.2125 3.25 5.9 3.3625C5.65 3.45 5.45 3.5625 5.45 3.8125C5.4625 4.3125 6.3375 4.775 6.3375 6.125ZM6.0625 13.2125C6.0625 11.8125 5.025 10.6875 3.6375 10.6875C2.25 10.6875 1.2125 11.8125 1.2125 13.2125C1.2125 14.6 2.25 15.7375 3.6375 15.7375C5.025 15.7375 6.0625 14.6 6.0625 13.2125ZM5.225 6.1C5.225 5.2125 4.5 4.475 3.625 4.475C2.75 4.475 2.025 5.2125 2.025 6.1C2.025 6.9875 2.75 7.725 3.625 7.725C4.5 7.725 5.225 6.9875 5.225 6.1ZM11.425 3.575C11.875 3.575 12.2125 3.9125 12.2125 4.3375C12.2125 4.7625 11.8875 5.1 11.4375 5.1C10.975 5.1 10.7125 4.8 10.25 4.8C9.8 4.8 9.45 5.125 9.45 5.675V10.125C9.45 10.4625 9.1875 10.7375 8.8375 10.7375C8.5125 10.7375 8.25 10.475 8.25 10.125V4.1375C8.25 3.8 8.5125 3.525 8.8375 3.525C9.45 3.525 9.3375 4.1 9.9375 4.1C10.525 4.1125 10.7375 3.575 11.425 3.575ZM12.75 7.1375C12.75 5 14.225 3.4625 16.2375 3.4625C18.0875 3.4625 19.5625 4.825 19.5625 6.675C19.5625 7.1125 19.275 7.4125 18.875 7.4125H14.2875C14.0875 7.4125 14.025 7.4875 14.025 7.6375C14.025 7.9875 14.3125 8.6375 14.7375 9.0625C15.1625 9.4875 15.7375 9.7375 16.5625 9.7375C17.175 9.7375 17.7125 9.5125 18.1125 9.2125C18.2375 9.1125 18.375 9.0625 18.525 9.0625C18.825 9.0625 19.0625 9.325 19.0625 9.6125C19.0625 9.7875 19 9.925 18.8625 10.05C18.275 10.55 17.4375 10.8125 16.525 10.8125C14.3125 10.8125 12.75 9.2375 12.75 7.1375ZM17.75 5.1C17.35 4.7 16.85 4.5125 16.2375 4.5125C15.625 4.5125 15.0625 4.75 14.65 5.1625C14.325 5.4875 14.1 5.9125 14.1 6.2C14.1 6.3375 14.1875 6.4 14.3625 6.4H18.0375C18.2125 6.4 18.2875 6.3375 18.2875 6.2C18.3 5.85 18.025 5.3875 17.75 5.1ZM20.775 7.1375C20.775 5 22.25 3.4625 24.2625 3.4625C26.1125 3.4625 27.5875 4.825 27.5875 6.675C27.5875 7.1125 27.3 7.4125 26.9 7.4125H22.3125C22.1125 7.4125 22.05 7.4875 22.05 7.6375C22.05 7.9875 22.3375 8.6375 22.7625 9.0625C23.1875 9.4875 23.7625 9.7375 24.5875 9.7375C25.2 9.7375 25.7375 9.5125 26.1375 9.2125C26.2625 9.1125 26.4 9.0625 26.55 9.0625C26.85 9.0625 27.0875 9.325 27.0875 9.6125C27.0875 9.7875 27.025 9.925 26.8875 10.05C26.3 10.55 25.4625 10.8125 24.55 10.8125C22.3375 10.8125 20.775 9.2375 20.775 7.1375ZM25.775 5.1C25.375 4.7 24.875 4.5125 24.2625 4.5125C23.65 4.5125 23.0875 4.75 22.675 5.1625C22.35 5.4875 22.125 5.9125 22.125 6.2C22.125 6.3375 22.2125 6.4 22.3875 6.4H26.075C26.25 6.4 26.325 6.3375 26.325 6.2C26.325 5.85 26.05 5.3875 25.775 5.1ZM34.6625 10.75C34.325 10.75 34.05 10.4875 34.05 10.1375V6.3C34.05 5.3 33.2625 4.5375 32.2375 4.5375C31.2 4.5375 30.4125 5.3125 30.4125 6.3V10.1375C30.4125 10.475 30.15 10.75 29.8 10.75C29.475 10.75 29.2125 10.4875 29.2125 10.1375V4.1375C29.2125 3.8125 29.475 3.55 29.7875 3.55C30.375 3.55 30.35 4.0875 30.6625 4.0875C30.975 4.0875 31.4 3.475 32.5 3.475C34.0375 3.475 35.2375 4.7625 35.2375 6.3V10.1375C35.25 10.475 34.9875 10.75 34.6625 10.75ZM42.775 10.75C42.4375 10.75 42.1625 10.4875 42.1625 10.1375V6.3C42.1625 5.3 41.375 4.5375 40.35 4.5375C39.3125 4.5375 38.525 5.3125 38.525 6.3V10.1375C38.525 10.475 38.2625 10.75 37.9125 10.75C37.5875 10.75 37.325 10.4875 37.325 10.1375V0.612501C37.325 0.275001 37.5875 0 37.9125 0C38.25 0 38.525 0.262501 38.525 0.612501V3.7375C38.525 3.9125 38.6 4 38.775 4C39.0875 4 39.5125 3.4625 40.6125 3.4625C42.15 3.4625 43.35 4.75 43.35 6.2875V10.125C43.3625 10.475 43.1 10.75 42.775 10.75ZM45.0125 7.1375C45.0125 5.0875 46.65 3.4625 48.7125 3.4625C50.775 3.4625 52.4125 5.0875 52.4125 7.1375C52.4125 9.1875 50.775 10.8125 48.7125 10.8125C46.65 10.8125 45.0125 9.1875 45.0125 7.1375ZM51.225 7.1375C51.225 5.7125 50.1625 4.5375 48.725 4.5375C47.3 4.5375 46.2375 5.7125 46.2375 7.1375C46.2375 8.5625 47.3 9.7375 48.725 9.7375C50.1625 9.7375 51.225 8.5625 51.225 7.1375ZM54.6625 3.5375C55 3.5375 55.275 3.8 55.275 4.15V7.9875C55.275 8.9875 56.0625 9.75 57.0875 9.75C58.125 9.75 58.9125 8.975 58.9125 7.9875V4.15C58.9125 3.8125 59.175 3.5375 59.525 3.5375C59.85 3.5375 60.1125 3.8 60.1125 4.15V10.15C60.1125 10.475 59.85 10.7375 59.5375 10.7375C58.95 10.7375 58.975 10.2 58.6625 10.2C58.35 10.2 57.925 10.8125 56.825 10.8125C55.2875 10.8125 54.0875 9.525 54.0875 7.9875V4.15C54.075 3.8 54.3375 3.5375 54.6625 3.5375ZM62.2375 10.2875C61.975 10.1125 61.7875 9.95 61.7875 9.625C61.7875 9.3125 62.025 9.075 62.325 9.075C62.675 9.075 62.8375 9.2875 63.125 9.4375C63.4875 9.65 63.9125 9.7625 64.4375 9.7625C65.4 9.7625 65.875 9.325 65.875 8.7875C65.875 8.025 65.1625 7.8875 64.2125 7.625C63.025 7.3125 61.875 6.9625 61.875 5.5875C61.875 4.375 62.8125 3.45 64.4625 3.45C65.1125 3.45 65.725 3.625 66.2 3.9125C66.375 4.0125 66.5375 4.225 66.5375 4.4625C66.5375 4.775 66.2875 5.0375 65.9625 5.0375C65.75 5.0375 65.575 4.9 65.375 4.75C65.1625 4.6125 64.85 4.4875 64.425 4.4875C63.475 4.4875 63.0625 4.9 63.0625 5.45C63.0625 6.175 63.75 6.3375 64.75 6.575C65.9125 6.8625 67.05 7.225 67.05 8.625C67.05 9.8375 66.15 10.7875 64.4125 10.7875C63.5625 10.8125 62.8 10.65 62.2375 10.2875ZM68.1875 7.1375C68.1875 5 69.6625 3.4625 71.675 3.4625C73.525 3.4625 75 4.825 75 6.675C75 7.1125 74.7125 7.4125 74.3125 7.4125H69.725C69.525 7.4125 69.4625 7.4875 69.4625 7.6375C69.4625 7.9875 69.75 8.6375 70.175 9.0625C70.6 9.4875 71.175 9.7375 72 9.7375C72.6125 9.7375 73.15 9.5125 73.55 9.2125C73.675 9.1125 73.8125 9.0625 73.9625 9.0625C74.2625 9.0625 74.5 9.325 74.5 9.6125C74.5 9.7875 74.4375 9.925 74.3 10.05C73.7125 10.55 72.875 10.8125 71.9625 10.8125C69.7625 10.8125 68.1875 9.2375 68.1875 7.1375ZM73.1875 5.1C72.7875 4.7 72.2875 4.5125 71.675 4.5125C71.0625 4.5125 70.5 4.75 70.0875 5.1625C69.7625 5.4875 69.5375 5.9125 69.5375 6.2C69.5375 6.3375 69.625 6.4 69.8 6.4H73.475C73.65 6.4 73.725 6.3375 73.725 6.2C73.7375 5.85 73.475 5.3875 73.1875 5.1Z" fill="#94A3B8"/>
</svg>
