<svg width="75" height="21" viewBox="0 0 75 21" fill="none" xmlns="http://www.w3.org/2000/svg">
<g clip-path="url(#clip0_171_37)">
<path fill-rule="evenodd" clip-rule="evenodd" d="M74.2986 3.60334C74.0362 3.30558 73.6829 3.15923 73.2136 3.15923C72.7442 3.15923 72.3758 3.31568 72.1184 3.64372C71.8661 3.96166 71.7349 4.43606 71.7349 5.04672V9.52825C71.1494 8.8974 70.5438 8.44824 69.9231 8.14543C69.5395 7.9587 69.0853 7.82244 68.5756 7.75683C68.2778 7.7215 67.9801 7.70132 67.647 7.70132C66.1027 7.70132 64.8511 8.23123 63.8922 9.30114C62.9434 10.361 62.469 11.8397 62.469 13.7322C62.469 14.6255 62.5901 15.4632 62.8324 16.2304C63.0746 16.9924 63.4178 17.6636 63.8821 18.239C64.3464 18.8042 64.9066 19.2433 65.5374 19.5612C66.1683 19.8691 66.8597 20.0255 67.6116 20.0255C67.9548 20.0255 68.2829 19.9952 68.5806 19.9397C68.7875 19.9094 68.9692 19.8539 69.1661 19.7984C69.6404 19.642 70.0846 19.4149 70.4883 19.1272C70.9072 18.8294 71.316 18.4509 71.7349 17.9816V18.2793C71.7349 18.8395 71.8762 19.2635 72.1537 19.5713C72.4414 19.8691 72.7947 20.0255 73.2136 20.0255C73.6526 20.0255 74.0059 19.8792 74.2734 19.5965C74.5409 19.2988 74.6923 18.8698 74.6923 18.2844V4.88522C74.6771 4.33008 74.5509 3.89101 74.2986 3.60334ZM71.1545 15.973C70.887 16.5382 70.5135 16.9672 70.0745 17.2448C69.6203 17.5223 69.1257 17.6535 68.5756 17.6535H68.5655C68.0154 17.6535 67.5259 17.5072 67.0666 17.2246C66.6124 16.9268 66.249 16.4978 65.9866 15.9225C65.7242 15.3472 65.598 14.6406 65.598 13.823C65.598 13.0408 65.7191 12.3544 65.9714 11.7791C66.2137 11.1937 66.567 10.7395 67.0111 10.4215C67.4653 10.0985 67.97 9.94713 68.5453 9.94713H68.5756C69.1156 9.94713 69.6051 10.1036 70.0644 10.4114C70.5186 10.7193 70.882 11.1634 71.1494 11.7387C71.4169 12.3141 71.5481 13.0206 71.5481 13.823C71.5582 14.681 71.427 15.3976 71.1545 15.973ZM61.3436 16.1042C61.1467 15.9376 60.8894 15.8518 60.5613 15.8518C60.2636 15.8518 60.0516 15.9275 59.885 16.0487C59.4964 16.4019 59.1785 16.6896 58.9363 16.8965C58.694 17.0933 58.4265 17.2851 58.1288 17.4719C57.8512 17.6485 57.5433 17.7898 57.2355 17.8605C56.9175 17.9463 56.5845 17.9917 56.211 17.9917C56.1252 17.9917 56.0545 17.9917 55.9788 17.9816C55.5145 17.9513 55.0755 17.8251 54.6869 17.593C54.2226 17.3255 53.8592 16.9319 53.5715 16.4221C53.3041 15.8922 53.1527 15.2765 53.1426 14.5902H59.2492C60.0667 14.5902 60.6976 14.469 61.1467 14.2571C61.6009 14.0249 61.823 13.5303 61.823 12.7683C61.823 11.9406 61.6009 11.1331 61.1619 10.3408C60.7228 9.54843 60.0819 8.90245 59.1987 8.40786C58.3256 7.90823 57.286 7.66599 56.0646 7.66599H55.9738C55.0704 7.67608 54.2428 7.82244 53.511 8.10506C52.7388 8.40282 52.0979 8.8217 51.5579 9.3617C51.0482 9.9118 50.6394 10.5679 50.3668 11.34C50.0943 12.1122 49.948 12.95 49.948 13.8382C49.948 15.7459 50.5082 17.2397 51.6134 18.355C52.6631 19.4048 54.1115 19.965 55.9637 20.0205C56.0646 20.0306 56.1757 20.0306 56.2867 20.0306C57.1497 20.0306 57.932 19.9195 58.6082 19.6975C59.2845 19.4754 59.8447 19.1979 60.2888 18.8597C60.7329 18.5165 61.071 18.1633 61.283 17.7999C61.5051 17.4365 61.6161 17.1135 61.6161 16.841C61.6464 16.513 61.5454 16.2657 61.3436 16.1042ZM54.0712 10.5477C54.5658 10.0279 55.2067 9.76544 55.9839 9.76544H55.994C56.8015 9.76544 57.4626 10.0178 57.9572 10.5275C58.4518 11.0372 58.7495 11.8195 58.8101 12.8591H53.1577C53.2637 11.8397 53.5615 11.0675 54.0712 10.5477ZM48.0807 15.8468C47.7728 15.8468 47.5608 15.9225 47.3943 16.0436C47.0107 16.3969 46.6877 16.6846 46.4455 16.8915C46.2033 17.0883 45.9459 17.2801 45.6481 17.4668C45.3605 17.6434 45.0627 17.7848 44.7447 17.8554C44.4369 17.9412 44.0937 17.9866 43.7203 17.9866C43.6345 17.9866 43.5638 17.9866 43.4881 17.9765C43.0238 17.9463 42.5847 17.8201 42.1961 17.5879C41.7419 17.3205 41.3685 16.9268 41.101 16.4171C40.8133 15.8872 40.672 15.2715 40.6619 14.5851H46.7584C47.5659 14.5851 48.1967 14.464 48.656 14.252C49.1001 14.0199 49.3272 13.5253 49.3272 12.7632C49.3272 11.9356 49.1152 11.1281 48.6762 10.3357C48.2371 9.54339 47.5911 8.8974 46.713 8.40282C45.8399 7.90319 44.7902 7.66094 43.5789 7.66094H43.478C42.5746 7.67104 41.7571 7.81739 41.0152 8.10001C40.243 8.39777 39.6021 8.81665 39.0722 9.35666C38.5524 9.90675 38.1436 10.5628 37.871 11.335C37.5935 12.1071 37.4522 12.9449 37.4522 13.8331C37.4522 15.7408 38.0174 17.2347 39.1277 18.35C40.1774 19.3997 41.6208 19.9599 43.4679 20.0154C43.5789 20.0255 43.6799 20.0255 43.7909 20.0255C44.664 20.0255 45.4362 19.9145 46.1124 19.6924C46.7887 19.4704 47.3489 19.1928 47.7879 18.8547C48.2422 18.5115 48.5702 18.1582 48.7923 17.7949C49.0143 17.4315 49.1253 17.1085 49.1253 16.836C49.1253 16.5281 49.0244 16.2859 48.8276 16.1193C48.656 15.9275 48.3835 15.8468 48.0807 15.8468ZM41.5703 10.5477C42.0649 10.0279 42.7058 9.76544 43.4831 9.76544H43.4931C44.3006 9.76544 44.9618 10.0178 45.4563 10.5275C45.956 11.0372 46.2487 11.8195 46.3193 12.8591H40.6619C40.7729 11.8397 41.0808 11.0675 41.5703 10.5477ZM6.8082 17.9917V10.7496C7.02016 10.7698 7.22708 10.7798 7.42895 10.7798C8.44335 10.7798 9.39215 10.5124 10.1996 10.0481V17.9967C10.1996 18.673 10.0432 19.1777 9.72523 19.5108C9.40729 19.8438 8.9985 20.0104 8.48877 20.0104C7.99419 20.0104 7.5955 19.8438 7.2826 19.5007C6.97979 19.1524 6.8082 18.6629 6.8082 17.9917ZM36.1652 3.60334C35.9028 3.30558 35.5445 3.15923 35.0852 3.15923C34.6108 3.15923 34.2475 3.31568 33.9901 3.64372C33.7277 3.96166 33.6065 4.43606 33.6065 5.04672V9.52825C33.0211 8.8974 32.4155 8.44824 31.7947 8.14543C31.4061 7.9587 30.957 7.82244 30.4573 7.75683C30.1697 7.7215 29.8618 7.70132 29.5287 7.70132C27.9844 7.70132 26.7227 8.23123 25.774 9.30114C24.8252 10.361 24.3508 11.8397 24.3508 13.7322C24.3508 14.6255 24.4719 15.4632 24.704 16.2304C24.9463 16.9924 25.2996 17.6636 25.7639 18.239C26.2282 18.8042 26.7883 19.2433 27.4192 19.5612C28.0601 19.8691 28.7414 20.0255 29.4934 20.0255C29.8265 20.0255 30.1545 19.9952 30.4624 19.9397C30.6693 19.9094 30.851 19.8539 31.0478 19.7984C31.5222 19.642 31.9663 19.4149 32.3701 19.1272C32.789 18.8294 33.1876 18.4509 33.6166 17.9816V18.2793C33.6166 18.8395 33.7579 19.2635 34.0355 19.5713C34.303 19.8691 34.6764 20.0255 35.0953 20.0255C35.5142 20.0255 35.8776 19.8792 36.1451 19.5965C36.4125 19.2988 36.5437 18.8698 36.5437 18.2844V4.88522C36.5337 4.33008 36.4125 3.89101 36.1652 3.60334ZM33.0312 15.973C32.7637 16.5382 32.3903 16.9672 31.9461 17.2448C31.502 17.5223 30.9974 17.6535 30.4573 17.6535H30.4473C29.8972 17.6535 29.4076 17.5072 28.9484 17.2246C28.4841 16.9268 28.1308 16.4978 27.8684 15.9225C27.6059 15.3472 27.4798 14.6406 27.4798 13.823C27.4798 13.0408 27.6009 12.3544 27.8431 11.7791C28.0955 11.1937 28.4386 10.7395 28.8929 10.4215C29.337 10.0985 29.8517 9.94713 30.417 9.94713H30.4523C30.9923 9.94713 31.4818 10.1036 31.931 10.4114C32.3953 10.7193 32.7587 11.1634 33.0262 11.7387C33.2886 12.3141 33.4248 13.0206 33.4248 13.823C33.4299 14.681 33.2886 15.3976 33.0312 15.973ZM15.1858 9.34656V9.72002C15.746 9.01348 16.3365 8.50375 16.9774 8.16562C17.6386 7.84263 18.3804 7.67104 19.2283 7.67104C20.0459 7.67104 20.7827 7.84767 21.4287 8.19085C22.0797 8.53403 22.5541 9.02862 22.867 9.66956C23.079 10.043 23.2102 10.4518 23.2657 10.8757C23.3212 11.2946 23.3565 11.8498 23.3565 12.521V18.1532C23.3565 18.7689 23.2102 19.2231 22.9175 19.5309C22.6399 19.8489 22.2564 20.0053 21.8021 20.0053C21.3378 20.0053 20.9644 19.8489 20.6666 19.5208C20.3689 19.2029 20.2276 18.7487 20.2276 18.1532V13.1064C20.2276 12.1021 20.0862 11.34 19.7986 10.8101C19.521 10.2802 18.9457 10.0127 18.0877 10.0127C17.5275 10.0127 17.0279 10.1793 16.5737 10.4972C16.1195 10.8202 15.7763 11.2593 15.5593 11.8346C15.4129 12.2888 15.3372 13.1266 15.3372 14.3731V18.1582C15.3372 18.779 15.1909 19.2281 14.8931 19.541C14.5954 19.8489 14.2219 20.0053 13.7576 20.0053C13.3034 20.0053 12.94 19.8489 12.6423 19.5208C12.3445 19.2029 12.2032 18.7487 12.2032 18.1532V9.39703C12.2032 8.8217 12.3344 8.38263 12.5918 8.10506C12.8441 7.81739 13.1974 7.66599 13.6516 7.66599C13.9191 7.66599 14.1613 7.7215 14.3834 7.85272C14.6055 7.98394 14.7821 8.17067 14.9234 8.41796C15.1303 8.69048 15.1858 8.99329 15.1858 9.34656ZM6.82839 0.640889C8.92784 -0.0959387 11.3301 -0.0555645 13.1217 1.45847C13.4548 1.76632 13.8383 2.14483 13.9847 2.60408C14.1714 3.16932 13.3539 2.54857 13.2327 2.46277C12.6473 2.08931 12.0619 1.77641 11.4008 1.5594C7.86802 0.49958 4.52202 2.4123 2.44275 5.39999C1.58984 6.71215 1.01956 8.09496 0.555257 9.61909C0.509836 9.78563 0.464415 10.0026 0.368527 10.149C0.277685 10.3155 0.333199 9.70488 0.333199 9.6746C0.408901 9.04376 0.540117 8.43814 0.696567 7.82749C1.6605 4.58746 3.78014 1.88239 6.82839 0.640889ZM10.9011 6.47495C10.9011 7.85272 9.78579 8.9731 8.40803 8.9731C7.03026 8.9731 5.91492 7.85777 5.91492 6.47495C5.91492 5.09214 7.03026 3.9768 8.40803 3.9768C9.78579 3.9768 10.9011 5.09214 10.9011 6.47495Z" fill="#94A3B8"/>
</g>
<defs>
<clipPath id="clip0_171_37">
<rect width="75" height="20.1871" fill="white"/>
</clipPath>
</defs>
</svg>
