<svg width="76" height="20" viewBox="0 0 76 20" fill="none" xmlns="http://www.w3.org/2000/svg">
<path d="M17.9061 1.46743C17.8186 1.67989 17.6686 1.87986 17.4936 2.02983C15.8064 3.72953 14.1067 5.41675 12.457 7.14145C11.4822 8.16627 10.4449 9.1536 9.45754 10.1784C8.10777 11.6157 6.67052 12.9654 5.32075 14.3902C3.8585 15.9024 2.34627 17.3522 0.896517 18.8894C0.834028 18.9394 0.796534 18.9894 0.75904 19.0519C0.571573 19.0394 0.534079 18.8894 0.509083 18.7394C0.496586 18.652 0.496589 18.552 0.496589 18.4645V14.4027C0.484091 13.8653 0.70905 13.3654 1.08398 12.9904C1.93384 12.1156 2.80869 11.2782 3.64604 10.3909C4.79584 9.17859 6.00813 8.0288 7.15793 6.81651C8.05778 5.87917 8.98261 4.96682 9.88246 4.04199C10.8948 3.01716 11.8946 2.00483 12.8944 0.967513C13.2694 0.567583 13.8193 0.41761 14.3442 0.555086C15.3065 0.742554 16.2814 0.955019 17.2437 1.14249C17.4936 1.17998 17.7186 1.29246 17.9061 1.46743Z" fill="#94A3B8"/>
<path d="M18.6312 6.46657C18.0063 7.12895 17.3439 7.75385 16.7065 8.39124C16.4816 8.6037 16.2691 8.82866 16.0691 9.06612C15.8942 9.26609 15.6942 9.44106 15.4817 9.60353C14.4069 10.6783 13.3321 11.7407 12.2698 12.8155C11.7699 13.3154 11.22 13.7778 10.7325 14.2902C10.4951 14.5402 10.2951 14.8026 10.0452 15.0401C8.82038 16.1774 7.67058 17.4022 6.47079 18.5645C6.13335 18.8769 5.69592 19.0644 5.246 19.0769C3.84625 19.1519 2.45898 19.1269 1.07172 19.1269C0.959243 19.1269 0.834264 19.1644 0.759277 19.0769C0.796771 19.0144 0.834265 18.9519 0.896754 18.9144C2.3465 17.3772 3.85874 15.9399 5.32099 14.4152C6.68325 12.9904 8.10801 11.6407 9.45777 10.2034C10.4326 9.1661 11.4574 8.19127 12.4573 7.16645C14.1195 5.44175 15.8067 3.75454 17.4939 2.05483C17.6813 1.90486 17.8188 1.70489 17.9063 1.49243C18.1688 1.6924 18.3437 1.97985 18.3937 2.30479C18.5187 2.89219 18.5812 3.50458 18.7312 4.07948C18.8311 4.47942 18.8811 4.87934 18.9811 5.27927C19.0811 5.7042 18.9436 6.15412 18.6312 6.46657Z" fill="#94A3B8"/>
<path d="M73.6837 13.0154C73.6338 12.9404 73.5713 12.8654 73.5213 12.7904C73.3963 12.6029 73.3963 12.5779 73.6087 12.5154C73.7087 12.4904 73.8087 12.453 73.8962 12.4155C74.3336 12.2405 74.6836 11.903 74.8585 11.4656C75.296 10.4658 74.846 9.3035 73.8462 8.86607C73.7212 8.81608 73.5838 8.76609 73.4588 8.74109C73.1338 8.67861 72.8089 8.64111 72.4839 8.64111H70.2593C69.9594 8.64111 69.9594 8.64112 69.9594 8.94106V15.19C69.9594 15.5899 69.9219 15.5524 70.3343 15.5524H71.0092C71.4466 15.5524 71.3966 15.6024 71.3966 15.1525V12.9279C71.3966 12.7029 71.4716 12.6654 71.6591 12.7404C71.8466 12.8029 72.009 12.9279 72.109 13.1028C72.234 13.2653 72.359 13.4403 72.4714 13.6028C72.8589 14.1902 73.2463 14.79 73.6337 15.4024C73.6837 15.4899 73.7337 15.5774 73.8712 15.5774H75.4959C74.871 14.6651 74.2961 13.8152 73.6837 13.0154ZM72.9089 11.5406C72.434 11.6406 71.959 11.6781 71.4716 11.6406C71.3591 11.6406 71.3591 11.5406 71.3591 11.4656V10.6908V9.91589C71.3591 9.81591 71.3841 9.75342 71.4966 9.75342C71.934 9.71593 72.3715 9.74092 72.7964 9.82841C73.2838 9.92839 73.6088 10.4033 73.5088 10.8907C73.4963 10.9657 73.4713 11.0532 73.4338 11.1282C73.3213 11.3157 73.1338 11.4781 72.9089 11.5406Z" fill="#94A3B8"/>
<path d="M63.5232 15.54H59.5614C59.224 15.54 59.249 15.5775 59.249 15.2276V8.77871C59.249 8.65373 59.2989 8.61624 59.4114 8.62874H63.3732C63.6357 8.62874 63.6357 8.62874 63.5857 8.89119C63.5607 9.06616 63.5107 9.25363 63.4857 9.4411C63.4107 9.84103 63.4107 9.77853 63.0983 9.77853H60.8737C60.7487 9.77853 60.6862 9.81603 60.6862 9.95351V11.1908C60.6862 11.3533 60.7737 11.3658 60.9112 11.3658H62.8358C62.9358 11.3658 62.9858 11.4033 62.9858 11.5032V12.3406C62.9858 12.4656 62.9358 12.5031 62.8233 12.5031H60.9612C60.7237 12.5031 60.7112 12.5156 60.7112 12.753V14.0778C60.7112 14.3277 60.7112 14.3277 60.9862 14.3277H63.3982C63.7857 14.3277 63.7482 14.2903 63.7482 14.6777C63.7482 14.9026 63.7357 15.1026 63.7482 15.3276C63.7607 15.5025 63.6857 15.54 63.5232 15.54Z" fill="#94A3B8"/>
<path d="M41.9147 15.5399H38.0029C37.7529 15.5399 37.7529 15.5399 37.7529 15.2774V8.77856C37.7529 8.66608 37.8029 8.62859 37.9029 8.64109H41.9647C42.0772 8.64109 42.1397 8.67858 42.1147 8.80356C42.0647 9.07851 42.0147 9.35347 41.9647 9.62842C41.9397 9.7784 41.8272 9.77839 41.7147 9.77839H39.7276C39.1902 9.77839 39.1902 9.7784 39.1902 10.3158V11.1157C39.1902 11.3531 39.2027 11.3656 39.4401 11.3656H41.1398C41.5148 11.3656 41.4898 11.3531 41.4898 11.7031C41.4898 11.9155 41.4773 12.1155 41.4898 12.328C41.4898 12.4779 41.4398 12.5154 41.3023 12.5154H39.5776C39.2277 12.5154 39.2277 12.5154 39.2277 12.8529V14.0027C39.2277 14.3526 39.2277 14.3526 39.5901 14.3526H41.9647C42.2397 14.3526 42.2397 14.3526 42.2397 14.6401V15.2275C42.2397 15.5649 42.2771 15.5399 41.9147 15.5399Z" fill="#94A3B8"/>
<path d="M53.8625 8.62851C53.6251 9.20342 53.4376 9.74082 53.2251 10.2657C52.5752 11.9279 51.9254 13.5902 51.2755 15.2524C51.2505 15.3149 51.2255 15.3648 51.2005 15.4273C51.1755 15.5398 51.0755 15.6148 50.963 15.5898C50.963 15.5898 50.963 15.5898 50.9505 15.5898C50.6506 15.5773 50.3631 15.5773 50.0507 15.5898C49.8757 15.6023 49.8007 15.5398 49.7382 15.3648C49.4633 14.615 49.1758 13.8776 48.8884 13.1402C48.351 11.728 47.8136 10.3282 47.2762 8.92846C47.2262 8.85347 47.2137 8.75349 47.2012 8.66601C47.2512 8.59102 47.3386 8.62851 47.4136 8.62851H48.5634C48.7009 8.60352 48.8259 8.7035 48.8509 8.84097C48.9759 9.2284 49.1258 9.60334 49.2508 9.97828C49.6132 11.0031 50.0132 12.0029 50.3131 13.0527C50.3506 13.2027 50.4006 13.3527 50.4256 13.5027C50.4381 13.5527 50.4506 13.6276 50.5381 13.6401C50.6131 13.4777 50.6756 13.3027 50.7006 13.1152C50.9755 12.1404 51.4004 11.1906 51.7504 10.2407C51.9129 9.76581 52.1128 9.31589 52.2753 8.86597C52.3003 8.716 52.4503 8.62851 52.5877 8.6535C52.9877 8.64101 53.3876 8.62851 53.8625 8.62851Z" fill="#94A3B8"/>
<path d="M18.4814 19.0643C18.3689 19.1018 18.2564 19.1142 18.1439 19.1017H10.6577C10.5202 19.1142 10.3828 19.0893 10.2578 19.0643C10.0828 18.9893 10.0328 18.8893 10.1578 18.7268C10.2078 18.6643 10.2703 18.6018 10.3203 18.5518C11.1201 17.802 11.895 17.0396 12.7074 16.3147C13.0948 15.9648 13.4572 15.5774 13.8697 15.2524C14.1196 15.0025 14.5195 14.9775 14.7945 15.2024C14.8695 15.2399 14.932 15.3024 14.982 15.3524C15.7693 16.0898 16.5317 16.8271 17.3316 17.552C17.719 17.902 18.0689 18.2644 18.4689 18.6018C18.5189 18.6393 18.5563 18.6893 18.5938 18.7393C18.6938 18.9018 18.6563 18.9893 18.4814 19.0643Z" fill="#94A3B8"/>
<path d="M31.9539 14.5401C31.8789 14.815 31.8289 15.0775 31.7664 15.3525C31.7539 15.4649 31.6539 15.5524 31.5415 15.5524H31.529H27.8671C27.6796 15.5524 27.6796 15.5399 27.6796 15.3025V8.95356C27.6796 8.64111 27.6421 8.64111 27.9921 8.64111H28.9419C29.0794 8.64111 29.1294 8.69111 29.1169 8.81609V14.1402C29.1294 14.3526 29.1294 14.3651 29.3543 14.3651H31.7664C31.9414 14.3401 31.9789 14.4151 31.9539 14.5401Z" fill="#94A3B8"/>
</svg>
