<svg width="75" height="21" viewBox="0 0 75 21" fill="none" xmlns="http://www.w3.org/2000/svg">
<g clip-path="url(#clip0_171_25)">
<path d="M55.125 1.86725C55.125 1.09 55.7711 0.459536 56.5681 0.459536H73.2096C74.0066 0.459536 74.6527 1.09 74.6527 1.86725V18.7034C74.6527 19.4809 74.0066 20.1111 73.2096 20.1111H56.5681C55.7711 20.1111 55.125 19.4809 55.125 18.7034V1.86725Z" fill="#94A3B8"/>
<path fill-rule="evenodd" clip-rule="evenodd" d="M0.460449 16.9204H8.60991V14.2449H3.40964V4.03724H0.460449V16.9204Z" fill="#94A3B8"/>
<path fill-rule="evenodd" clip-rule="evenodd" d="M12.7357 16.9204V8.0469H9.7862V16.9204H12.7357ZM11.2609 6.83534C12.2895 6.83534 12.9296 6.15393 12.9296 5.30184C12.9105 4.43138 12.2895 3.76914 11.2805 3.76914C10.2715 3.76914 9.61182 4.43138 9.61182 5.30184C9.61182 6.15393 10.2519 6.83534 11.2417 6.83534H11.2609Z" fill="#94A3B8"/>
<path fill-rule="evenodd" clip-rule="evenodd" d="M14.1055 16.9204H17.0549V11.9649C17.0549 11.6997 17.0741 11.4348 17.1521 11.2452C17.3652 10.7155 17.8505 10.1667 18.6653 10.1667C19.7327 10.1667 20.1597 10.9808 20.1597 12.1729V16.9204H23.1089V11.8323C23.1089 9.10669 21.6536 7.83841 19.7131 7.83841C18.1221 7.83841 17.4234 8.72778 17.0353 9.33356H17.055V8.0469H14.1055C14.1443 8.87955 14.1055 16.9204 14.1055 16.9204Z" fill="#94A3B8"/>
<path fill-rule="evenodd" clip-rule="evenodd" d="M27.2694 4.03724H24.3198V16.9204H27.2694V14.0435L28.0065 13.1156L30.3157 16.9204H33.944L30.0635 11.4122L33.4591 7.66458H29.9083C29.9083 7.66458 27.4829 11.0175 27.2694 11.4151V4.03724Z" fill="#94A3B8"/>
<path fill-rule="evenodd" clip-rule="evenodd" d="M41.832 13.219C41.8708 12.9911 41.9291 12.5539 41.9291 12.0597C41.9291 9.7658 40.7647 7.43721 37.699 7.43721C34.4197 7.43721 32.9062 10.0308 32.9062 12.383C32.9062 15.2924 34.7496 17.1095 37.9706 17.1095C39.2513 17.1095 40.4348 16.9204 41.4051 16.5229L41.0169 14.575C40.2214 14.8389 39.4065 14.9707 38.3976 14.9707C37.0199 14.9707 35.817 14.4054 35.7198 13.2001L41.832 13.2185V13.219ZM35.7006 11.2237C35.7781 10.4664 36.2827 9.34934 37.5439 9.34934C38.8825 9.34934 39.1931 10.5423 39.1931 11.2237H35.7006Z" fill="#94A3B8"/>
<path fill-rule="evenodd" clip-rule="evenodd" d="M49.209 4.03726V8.49699H49.1703C48.7434 7.87283 47.8506 7.45637 46.6673 7.45637C44.3969 7.45637 42.3984 9.27345 42.4176 12.3775C42.4176 15.2549 44.2223 17.1287 46.473 17.1287C47.6955 17.1287 48.8597 16.5985 49.4417 15.5763H49.5001L49.6165 16.9204H52.2362C52.1973 16.2957 52.1582 15.2168 52.1582 14.157V4.03726H49.209ZM49.209 12.8131C49.209 13.04 49.1896 13.2674 49.1507 13.4564C48.9763 14.2704 48.2776 14.8381 47.424 14.8381C46.2015 14.8381 45.4059 13.854 45.4059 12.3018C45.4059 10.8445 46.0852 9.67101 47.4433 9.67101C48.3551 9.67101 48.9956 10.2954 49.1703 11.0714C49.209 11.242 49.209 11.4314 49.209 11.6015V12.8131Z" fill="#94A3B8"/>
<path fill-rule="evenodd" clip-rule="evenodd" d="M61.0442 16.9099V8.03614H58.0948V16.9099H61.0442ZM59.5695 6.82458C60.598 6.82458 61.2382 6.14317 61.2382 5.29161C61.219 4.42088 60.598 3.75838 59.589 3.75838C58.5801 3.75838 57.9204 4.42088 57.9204 5.29161C57.9204 6.14317 58.5605 6.82458 59.5503 6.82458H59.5695Z" fill="white"/>
<path fill-rule="evenodd" clip-rule="evenodd" d="M62.6763 16.9099H65.6257V11.9544C65.6257 11.6892 65.6449 11.4243 65.7228 11.2347C65.936 10.7048 66.4213 10.156 67.2361 10.156C68.3034 10.156 68.7303 10.9697 68.7303 12.1627V16.9099H71.6795V11.8218C71.6795 9.09619 70.2244 7.82791 68.2839 7.82791C66.6927 7.82791 65.9942 8.71728 65.6061 9.32307H65.6258V8.03614H62.6763C62.7151 8.86879 62.6763 16.9099 62.6763 16.9099Z" fill="white"/>
</g>
<defs>
<clipPath id="clip0_171_25">
<rect width="75" height="20.4794" fill="white"/>
</clipPath>
</defs>
</svg>
