<svg width="75" height="31" viewBox="0 0 75 31" fill="none" xmlns="http://www.w3.org/2000/svg">
<g clip-path="url(#clip0_171_41)">
<path d="M38.3714 0.0164121C41.0535 -0.0759129 43.7532 0.327512 46.2829 1.22519C50.0887 2.56116 53.49 5.00946 55.9788 8.18084C57.0736 9.57216 57.9906 11.1015 58.7093 12.7195C58.8367 12.9888 58.9349 13.2914 58.8666 13.5914C58.7831 14.095 58.3416 14.5114 57.8339 14.5617C57.3065 14.6388 56.7616 14.3098 56.5735 13.8129C55.1444 10.4499 52.7054 7.52871 49.663 5.50664C47.7821 4.24979 45.6727 3.33456 43.469 2.82216C40.6272 2.15744 37.6352 2.15744 34.7927 2.82014C30.7343 3.75471 27.0182 6.08264 24.3974 9.31731C23.2861 10.6802 22.3685 12.1995 21.6768 13.8158C21.5271 14.1914 21.1831 14.4859 20.7818 14.5518C20.3948 14.6265 19.9735 14.4928 19.7037 14.2046C19.3855 13.8859 19.2815 13.3764 19.4456 12.958C21.3493 8.45714 24.8743 4.67609 29.2082 2.42549C32.0309 0.948062 35.1886 0.123962 38.3714 0.0164121Z" fill="#94A3B8"/>
<path d="M34.8269 13.8747C34.8108 13.6409 35.032 13.466 35.2512 13.4605C35.5359 13.4528 35.8215 13.4552 36.1069 13.4593C36.3052 13.466 36.5367 13.5982 36.5358 13.8208C36.546 16.4362 36.5297 19.0523 36.5446 21.6691C37.6043 20.4908 38.673 19.3189 39.7365 18.1441C39.9459 17.9376 40.1115 17.6247 40.4373 17.5978C40.8762 17.5796 41.3162 17.5904 41.7556 17.591C41.925 17.5758 42.114 17.731 42.0545 17.9118C41.985 18.0513 41.8576 18.1471 41.7536 18.2578C40.6037 19.4068 39.4494 20.5518 38.3053 21.7057C39.4104 22.9673 40.5003 24.2417 41.6004 25.5079C41.7419 25.6881 41.9191 25.841 42.0378 26.0396C42.1248 26.1949 41.9806 26.3839 41.8142 26.3912C41.4489 26.4117 41.0827 26.3912 40.7165 26.4C40.5261 26.3956 40.3201 26.4234 40.1472 26.3253C39.965 26.2207 39.8543 26.0338 39.7239 25.8765C38.6628 24.5402 37.6086 23.1987 36.5437 21.8648C36.5328 23.1803 36.5405 24.4951 36.5396 25.8097C36.5355 25.9614 36.5666 26.1442 36.4344 26.255C36.2241 26.458 35.9109 26.3868 35.6484 26.4C35.4155 26.3921 35.143 26.4431 34.9538 26.2711C34.8483 26.1891 34.8207 26.049 34.8249 25.9245C34.8278 21.9073 34.8237 17.8907 34.8269 13.8747Z" fill="#94A3B8"/>
<path d="M29.9933 17.569C30.5253 17.3979 31.125 17.3653 31.6462 17.5909C31.829 17.6768 32.0414 17.8599 31.9588 18.0855C31.8753 18.3688 31.8041 18.6553 31.7045 18.9336C31.631 19.1334 31.3992 19.2076 31.2041 19.1686C30.7652 19.0933 30.3343 18.9483 29.8843 18.9629C29.5703 18.9556 29.2805 19.124 29.0657 19.3423C28.7192 19.6813 28.5398 20.1553 28.4593 20.6255C28.3954 20.9653 28.4136 21.3125 28.4107 21.6559C28.4107 23.0988 28.4112 24.5425 28.4104 25.9854C28.4309 26.2227 28.1854 26.3838 27.9712 26.392C27.677 26.3961 27.3835 26.3999 27.0896 26.3897C26.8772 26.3785 26.6382 26.2236 26.6657 25.9845C26.6645 23.3126 26.6628 20.6416 26.6663 17.9698C26.6482 17.704 26.9426 17.5596 27.1735 17.5845C27.4632 17.6035 27.8587 17.4946 28.0471 17.7861C28.19 18.1241 28.258 18.4892 28.3922 18.8302C28.7962 18.2759 29.3318 17.7872 29.9933 17.569Z" fill="#94A3B8"/>
<path d="M0 17.7729C0.081738 17.6791 0.177246 17.5777 0.313477 17.5874C0.7125 17.5836 1.11269 17.5748 1.51142 17.5933C1.71387 17.5991 1.85332 17.777 1.88291 17.9653C2.27519 19.5606 2.66045 21.1582 3.05098 22.7539C3.16552 23.2467 3.30498 23.7345 3.37969 24.2358C3.45673 24.6861 3.47197 25.1431 3.54521 25.5943C3.646 24.9503 3.73623 24.3023 3.90996 23.6733C4.4206 21.7687 4.93096 19.8644 5.44219 17.9604C5.48203 17.7433 5.68623 17.5889 5.90332 17.5889C6.34746 17.5777 6.79248 17.5854 7.23662 17.5854C7.47481 17.5742 7.72972 17.7134 7.7871 17.9575C8.16855 19.3459 8.54535 20.7368 8.9253 22.1264C9.15585 23.0264 9.45787 23.9112 9.5883 24.8346C9.6243 25.0889 9.65947 25.3438 9.7119 25.5963C9.85515 24.1455 10.2284 22.734 10.5355 21.3134C10.7889 20.1832 11.0367 19.0517 11.293 17.9214C11.3308 17.6944 11.5711 17.5801 11.7826 17.5865C12.1418 17.5845 12.5016 17.5742 12.8602 17.5924C13.0732 17.5986 13.1956 17.8341 13.1206 18.024C12.3999 20.6833 11.6818 23.3443 10.9609 26.0035C10.9222 26.2168 10.7364 26.3832 10.5187 26.3867C9.9621 26.4049 9.40432 26.3911 8.84767 26.3941C8.64817 26.4064 8.4372 26.2994 8.40202 26.0894C7.90372 24.2607 7.41533 22.4287 6.92168 20.5986C6.74297 19.9619 6.6706 19.3019 6.5956 18.6471C6.50391 19.2301 6.4585 19.8228 6.30322 20.3956C5.79785 22.2799 5.28955 24.1652 4.783 26.0498C4.72588 26.3551 4.37695 26.416 4.11738 26.3961C3.59971 26.3867 3.08203 26.4081 2.56494 26.3867C2.38066 26.3873 2.23858 26.2438 2.20547 26.0698C1.47891 23.421 0.754687 20.7711 0.0275391 18.123C0.00234375 18.0073 0.00556641 17.8892 0 17.7729Z" fill="#94A3B8"/>
<path d="M65.2839 17.5925C65.6618 17.586 66.0413 17.5845 66.4192 17.5925C66.6491 17.5957 66.8654 17.753 66.9377 17.9727C67.5905 19.6784 68.2385 21.3872 68.8904 23.0938C69.0266 23.4401 69.1218 23.8013 69.1828 24.1681C69.4523 23.1559 69.8111 22.1709 70.1261 21.1719C70.4768 20.0918 70.8278 19.0113 71.1799 17.9308C71.2321 17.7428 71.4113 17.6144 71.6018 17.5986C71.9103 17.5757 72.2208 17.5957 72.5299 17.5874C72.7107 17.5895 72.926 17.5684 73.0637 17.7134C73.1531 17.789 73.134 17.9147 73.0968 18.0128C72.0539 20.9879 71.0138 23.9645 69.9723 26.9405C69.7913 27.4362 69.6521 27.955 69.3606 28.4009C68.9425 29.08 68.2649 29.569 67.5202 29.8335C67.26 29.9141 66.9914 30.0928 66.7115 29.9926C66.5129 29.9419 66.4367 29.7354 66.3307 29.5836C66.2546 29.4459 66.1139 29.3185 66.1432 29.1471C66.157 28.9772 66.2932 28.8389 66.4538 28.7935C66.7678 28.6851 67.0871 28.5656 67.3415 28.3438C67.9596 27.8208 68.342 27.0474 68.4875 26.2602C68.3888 25.9107 68.2063 25.5893 68.0738 25.2509C67.0793 22.9394 66.0846 20.627 65.0876 18.3164C65.0276 18.1652 64.9391 18.021 64.9221 17.857C64.9244 17.6768 65.131 17.5977 65.2839 17.5925Z" fill="#94A3B8"/>
<path d="M18.9089 18.7104C18.3663 18.8112 17.8715 19.149 17.5961 19.6301C17.1359 20.4102 17.0828 21.3516 17.1036 22.2363C17.1364 23.0373 17.265 23.8916 17.776 24.539C18.1571 25.026 18.7835 25.2706 19.3923 25.2612C19.9779 25.28 20.5914 25.0816 20.9884 24.6363C21.4955 24.0817 21.6584 23.3121 21.7281 22.5864C21.7589 21.8736 21.7733 21.1479 21.5884 20.4519C21.4413 19.8639 21.1307 19.2759 20.5934 18.9591C20.0933 18.6524 19.4755 18.6237 18.9089 18.7104ZM19.138 17.4419C20.1197 17.3815 21.1484 17.5854 21.9587 18.167C22.6835 18.6826 23.1757 19.4772 23.4056 20.3291C23.679 21.3462 23.6778 22.4317 23.4299 23.4542C23.1965 24.3967 22.6504 25.2852 21.8266 25.8208C20.9462 26.405 19.8402 26.5567 18.8069 26.4322C17.9266 26.3238 17.0687 25.9377 16.4558 25.289C15.7355 24.5344 15.3777 23.4946 15.3033 22.4669C15.2128 21.3272 15.3874 20.1208 16.0214 19.1475C16.4904 18.4151 17.2361 17.877 18.0677 17.6314C18.4146 17.523 18.7765 17.4726 19.138 17.4419Z" fill="#94A3B8"/>
<path d="M48.0969 18.6641C47.5587 18.6987 47.0392 19.0084 46.799 19.4996C46.3296 20.4082 46.32 21.4654 46.3434 22.4645C46.3809 23.1172 46.4518 23.7911 46.7559 24.3805C46.9616 24.7775 47.3352 25.091 47.7769 25.187C48.4528 25.3496 49.2483 25.212 49.7287 24.6779C50.1916 24.1508 50.3439 23.4342 50.4151 22.756C50.464 21.9829 50.467 21.1939 50.2751 20.4371C50.1432 19.9312 49.92 19.4258 49.5192 19.0742C49.1349 18.7359 48.5993 18.6055 48.0969 18.6641ZM50.4128 13.7627C50.4005 13.5577 50.61 13.4267 50.7921 13.4109C51.0837 13.3951 51.3761 13.4026 51.6681 13.4059C51.8908 13.4038 52.1398 13.5694 52.1076 13.8166C52.1076 17.852 52.1085 21.8867 52.107 25.9215C52.1223 26.1298 51.9171 26.2915 51.7247 26.3041C51.4923 26.3164 51.2595 26.3164 51.028 26.3003C50.8648 26.2901 50.7066 26.1855 50.651 26.0293C50.5637 25.7671 50.5182 25.4947 50.4517 25.2281C50.1295 25.6652 49.714 26.0519 49.1979 26.2438C48.4616 26.5148 47.6421 26.5192 46.8855 26.3346C46.1252 26.1518 45.4631 25.6294 45.0963 24.9418C44.5206 23.8921 44.4523 22.6573 44.4884 21.4863C44.5089 20.4858 44.6999 19.4302 45.3517 18.6363C45.8433 17.9633 46.649 17.5771 47.4626 17.4761C48.2199 17.3653 49.0411 17.4928 49.668 17.9516C49.9645 18.1602 50.2018 18.4399 50.4137 18.7324C50.4078 17.0762 50.4093 15.4195 50.4128 13.7627Z" fill="#94A3B8"/>
<path d="M58.5619 18.7146C58.2918 18.7696 58.0301 18.878 57.8119 19.047C57.3754 19.3869 57.1585 19.9269 57.0428 20.4513C56.8744 21.2833 56.8767 22.1426 56.9638 22.984C57.0452 23.6021 57.2005 24.2619 57.6537 24.7189C58.0228 25.1065 58.5795 25.2486 59.1004 25.2231C59.6605 25.2433 60.2435 25.0348 60.6048 24.5947C61.0565 24.0483 61.1839 23.3215 61.2499 22.6368C61.2918 21.8317 61.2923 21.0073 61.0662 20.2257C60.9232 19.7388 60.6619 19.2545 60.2209 18.9771C59.7352 18.6583 59.1208 18.629 58.5619 18.7146ZM57.8119 17.6094C58.5892 17.3941 59.4211 17.3815 60.2063 17.5611C60.9358 17.7302 61.619 18.1397 62.0673 18.7461C62.5413 19.3678 62.7806 20.1387 62.8802 20.9068C62.9667 21.4992 62.9418 22.0992 62.9426 22.696C62.9426 23.7729 62.9426 24.8502 62.9397 25.9268C62.9515 26.0581 62.8685 26.1744 62.7616 26.2427C62.5808 26.354 62.3567 26.3048 62.1551 26.3174C61.929 26.3156 61.6316 26.3355 61.5085 26.1003C61.3885 25.8237 61.3636 25.5152 61.2865 25.2243C60.9832 25.5929 60.6692 25.9731 60.2303 26.1861C59.5618 26.5166 58.7801 26.4973 58.0647 26.3575C57.1893 26.1847 56.383 25.667 55.888 24.9211C55.2982 24.0524 55.0843 22.9802 55.0925 21.9439C55.0852 20.9337 55.2829 19.8894 55.8446 19.0347C56.2937 18.336 57.0144 17.8301 57.8119 17.6094Z" fill="#94A3B8"/>
<path d="M73.4681 24.2261C73.0236 24.3893 72.7439 24.902 72.8573 25.3649C72.973 25.9083 73.6052 26.2792 74.1326 26.0783C74.6189 25.9297 74.9256 25.3751 74.7747 24.8862C74.6423 24.336 73.9895 24.0108 73.4681 24.2261ZM73.5296 23.9938C73.7933 23.9522 74.0798 23.9493 74.3244 24.0714C74.741 24.2607 75.0405 24.708 74.9954 25.1733C75.03 25.7282 74.5632 26.2242 74.0306 26.3135C73.4309 26.441 72.7855 26.0065 72.6633 25.4082C72.5057 24.8062 72.924 24.1286 73.5296 23.9938Z" fill="#94A3B8"/>
<path d="M73.6535 24.6699C73.6526 24.7959 73.652 24.9219 73.6535 25.0488C73.764 25.042 73.8776 25.0488 73.9866 25.0186C74.0891 24.9761 74.0789 24.8457 74.0511 24.7584C73.945 24.6547 73.7874 24.6817 73.6535 24.6699ZM73.3201 24.4649C73.6389 24.483 73.9962 24.3931 74.2833 24.5709C74.5148 24.7447 74.4026 25.1226 74.1413 25.2031C74.2166 25.4024 74.3214 25.5875 74.4172 25.7774C74.2965 25.7797 74.1779 25.7818 74.0592 25.7838C73.9734 25.608 73.8893 25.4302 73.8073 25.2529C73.7551 25.2515 73.7039 25.2509 73.6535 25.25C73.6526 25.4273 73.6526 25.6045 73.6526 25.7818C73.5398 25.7803 73.4294 25.7788 73.3186 25.7779C73.3195 25.34 73.318 24.902 73.3201 24.4649Z" fill="#94A3B8"/>
</g>
<defs>
<clipPath id="clip0_171_41">
<rect width="75" height="30.0225" fill="white"/>
</clipPath>
</defs>
</svg>
